<svg width="190" height="88" viewBox="0 0 190 88" fill="none" xmlns="http://www.w3.org/2000/svg">
<rect width="100" height="88" transform="translate(90)" fill="#0A6054"/>
<path d="M108.08 16L112.66 23.46L117.32 16H119.32V30H117.16V24.26C117.16 23.42 117.173 22.6267 117.2 21.88C117.24 21.12 117.3 20.3667 117.38 19.62L113.26 25.98H111.94L107.92 19.64C108 20.3867 108.053 21.1333 108.08 21.88C108.107 22.6267 108.12 23.42 108.12 24.26V30H105.96V16H108.08ZM132.245 28.62H132.225C131.798 29.0333 131.212 29.4 130.465 29.72C129.718 30.04 128.938 30.2 128.125 30.2C127.032 30.2 126.065 29.9733 125.225 29.52C124.398 29.0533 123.752 28.42 123.285 27.62C122.818 26.8067 122.585 25.8867 122.585 24.86C122.585 23.6867 122.832 22.6867 123.325 21.86C123.818 21.02 124.472 20.38 125.285 19.94C126.098 19.4867 126.985 19.26 127.945 19.26C128.825 19.26 129.625 19.48 130.345 19.92C131.065 20.3467 131.638 20.94 132.065 21.7C132.492 22.46 132.705 23.3467 132.705 24.36L132.685 25.24H124.645C124.765 26.1867 125.152 26.94 125.805 27.5C126.472 28.0467 127.312 28.32 128.325 28.32C129.058 28.32 129.652 28.1867 130.105 27.92C130.558 27.64 130.932 27.3733 131.225 27.12L132.245 28.62ZM127.945 21.16C127.158 21.16 126.472 21.3467 125.885 21.72C125.298 22.08 124.912 22.7067 124.725 23.6H130.605V23.46C130.565 23.0067 130.412 22.6067 130.145 22.26C129.892 21.9133 129.572 21.6467 129.185 21.46C128.798 21.26 128.385 21.16 127.945 21.16ZM138.804 30H136.744V21.5H134.564V19.5H136.744V16.82H138.804V19.5H141.244V21.5H138.804V30ZM153.302 19.5V30H151.222V28.38C150.902 28.82 150.429 29.2333 149.802 29.62C149.175 30.0067 148.449 30.2 147.622 30.2C146.742 30.2 145.935 29.9667 145.202 29.5C144.482 29.0333 143.909 28.3867 143.482 27.56C143.055 26.7333 142.842 25.7867 142.842 24.72C142.842 23.6533 143.062 22.7133 143.502 21.9C143.942 21.0733 144.549 20.4333 145.322 19.98C146.095 19.5133 146.975 19.28 147.962 19.28C148.695 19.28 149.335 19.44 149.882 19.76C150.442 20.08 150.889 20.4533 151.222 20.88V19.5H153.302ZM148.102 28.3C148.742 28.3 149.302 28.1467 149.782 27.84C150.262 27.52 150.635 27.0933 150.902 26.56C151.169 26.0133 151.302 25.4 151.302 24.72C151.302 24.0533 151.169 23.4533 150.902 22.92C150.635 22.3867 150.262 21.9667 149.782 21.66C149.302 21.34 148.742 21.18 148.102 21.18C147.489 21.18 146.942 21.3333 146.462 21.64C145.982 21.9467 145.609 22.3667 145.342 22.9C145.075 23.4333 144.942 24.04 144.942 24.72C144.942 25.4 145.075 26.0133 145.342 26.56C145.609 27.0933 145.982 27.52 146.462 27.84C146.942 28.1467 147.489 28.3 148.102 28.3ZM108.08 37L112.66 44.46L117.32 37H119.32V51H117.16V45.26C117.16 44.42 117.173 43.6267 117.2 42.88C117.24 42.12 117.3 41.3667 117.38 40.62L113.26 46.98H111.94L107.92 40.64C108 41.3867 108.053 42.1333 108.08 42.88C108.107 43.6267 108.12 44.42 108.12 45.26V51H105.96V37H108.08ZM133.285 45.74C133.285 46.8067 133.045 47.7533 132.565 48.58C132.098 49.3933 131.458 50.0333 130.645 50.5C129.845 50.9667 128.945 51.2 127.945 51.2C126.945 51.2 126.038 50.9667 125.225 50.5C124.412 50.0333 123.765 49.3933 123.285 48.58C122.818 47.7533 122.585 46.8067 122.585 45.74C122.585 44.6733 122.818 43.7333 123.285 42.92C123.765 42.0933 124.412 41.4467 125.225 40.98C126.038 40.5133 126.945 40.28 127.945 40.28C128.945 40.28 129.845 40.5133 130.645 40.98C131.458 41.4467 132.098 42.0933 132.565 42.92C133.045 43.7333 133.285 44.6733 133.285 45.74ZM131.185 45.74C131.198 45.0333 131.058 44.4133 130.765 43.88C130.485 43.3333 130.098 42.9133 129.605 42.62C129.112 42.3133 128.558 42.16 127.945 42.16C127.332 42.16 126.772 42.3133 126.265 42.62C125.772 42.9133 125.378 43.3333 125.085 43.88C124.805 44.4133 124.672 45.0333 124.685 45.74C124.672 46.4333 124.805 47.0533 125.085 47.6C125.378 48.1333 125.772 48.5533 126.265 48.86C126.772 49.1667 127.332 49.32 127.945 49.32C128.558 49.32 129.112 49.1667 129.605 48.86C130.098 48.5533 130.485 48.1333 130.765 47.6C131.058 47.0533 131.198 46.4333 131.185 45.74ZM141.53 40.28C142.477 40.28 143.21 40.4733 143.73 40.86C144.25 41.2467 144.61 41.7667 144.81 42.42C145.023 43.0733 145.13 43.8 145.13 44.6V51H143.07V44.74C143.07 44.2333 143.003 43.78 142.87 43.38C142.737 42.98 142.51 42.6667 142.19 42.44C141.87 42.2133 141.423 42.12 140.85 42.16C140.317 42.16 139.843 42.2733 139.43 42.5C139.017 42.7267 138.69 43.0267 138.45 43.4C138.21 43.7733 138.09 44.1867 138.09 44.64V51H136.03V40.5H138.09V42.16C138.41 41.6667 138.877 41.2333 139.49 40.86C140.103 40.4733 140.783 40.28 141.53 40.28ZM157.444 49.62H157.424C156.998 50.0333 156.411 50.4 155.664 50.72C154.918 51.04 154.138 51.2 153.324 51.2C152.231 51.2 151.264 50.9733 150.424 50.52C149.598 50.0533 148.951 49.42 148.484 48.62C148.018 47.8067 147.784 46.8867 147.784 45.86C147.784 44.6867 148.031 43.6867 148.524 42.86C149.018 42.02 149.671 41.38 150.484 40.94C151.298 40.4867 152.184 40.26 153.144 40.26C154.024 40.26 154.824 40.48 155.544 40.92C156.264 41.3467 156.838 41.94 157.264 42.7C157.691 43.46 157.904 44.3467 157.904 45.36L157.884 46.24H149.844C149.964 47.1867 150.351 47.94 151.004 48.5C151.671 49.0467 152.511 49.32 153.524 49.32C154.258 49.32 154.851 49.1867 155.304 48.92C155.758 48.64 156.131 48.3733 156.424 48.12L157.444 49.62ZM153.144 42.16C152.358 42.16 151.671 42.3467 151.084 42.72C150.498 43.08 150.111 43.7067 149.924 44.6H155.804V44.46C155.764 44.0067 155.611 43.6067 155.344 43.26C155.091 42.9133 154.771 42.6467 154.384 42.46C153.998 42.26 153.584 42.16 153.144 42.16ZM162.208 55.6L163.928 51.66L163.988 51.52L159.108 40.5H161.508L164.788 48.22C164.828 48.3 164.868 48.4 164.908 48.52C164.948 48.64 164.994 48.7733 165.048 48.92C165.101 48.7733 165.148 48.6333 165.188 48.5C165.241 48.3533 165.294 48.2133 165.348 48.08L168.088 40.5H170.528L166.208 51L164.428 55.6H162.208ZM108.08 58L112.66 65.46L117.32 58H119.32V72H117.16V66.26C117.16 65.42 117.173 64.6267 117.2 63.88C117.24 63.12 117.3 62.3667 117.38 61.62L113.26 67.98H111.94L107.92 61.64C108 62.3867 108.053 63.1333 108.08 63.88C108.107 64.6267 108.12 65.42 108.12 66.26V72H105.96V58H108.08ZM133.005 61.5V72H130.925V70.38C130.605 70.82 130.132 71.2333 129.505 71.62C128.878 72.0067 128.152 72.2 127.325 72.2C126.445 72.2 125.638 71.9667 124.905 71.5C124.185 71.0333 123.612 70.3867 123.185 69.56C122.758 68.7333 122.545 67.7867 122.545 66.72C122.545 65.6533 122.765 64.7133 123.205 63.9C123.645 63.0733 124.252 62.4333 125.025 61.98C125.798 61.5133 126.678 61.28 127.665 61.28C128.398 61.28 129.038 61.44 129.585 61.76C130.145 62.08 130.592 62.4533 130.925 62.88V61.5H133.005ZM127.805 70.3C128.445 70.3 129.005 70.1467 129.485 69.84C129.965 69.52 130.338 69.0933 130.605 68.56C130.872 68.0133 131.005 67.4 131.005 66.72C131.005 66.0533 130.872 65.4533 130.605 64.92C130.338 64.3867 129.965 63.9667 129.485 63.66C129.005 63.34 128.445 63.18 127.805 63.18C127.192 63.18 126.645 63.3333 126.165 63.64C125.685 63.9467 125.312 64.3667 125.045 64.9C124.778 65.4333 124.645 66.04 124.645 66.72C124.645 67.4 124.778 68.0133 125.045 68.56C125.312 69.0933 125.685 69.52 126.165 69.84C126.645 70.1467 127.192 70.3 127.805 70.3ZM142.261 63.72C142.128 63.6533 141.961 63.6 141.761 63.56C141.575 63.5067 141.375 63.48 141.161 63.48C140.735 63.48 140.315 63.5933 139.901 63.82C139.488 64.0333 139.141 64.3467 138.861 64.76C138.595 65.16 138.461 65.64 138.461 66.2V72H136.381V61.5H138.461V63.48C138.755 62.84 139.195 62.3133 139.781 61.9C140.381 61.4867 141.008 61.28 141.661 61.28C142.155 61.28 142.535 61.3467 142.801 61.48L142.261 63.72ZM144.948 72V57.2H147.008V66.2L151.748 61.5H154.528L149.608 66.12L154.668 72H152.028L148.148 67.48L147.008 68.56V72H144.948ZM165.386 70.62H165.366C164.939 71.0333 164.352 71.4 163.606 71.72C162.859 72.04 162.079 72.2 161.266 72.2C160.172 72.2 159.206 71.9733 158.366 71.52C157.539 71.0533 156.892 70.42 156.426 69.62C155.959 68.8067 155.726 67.8867 155.726 66.86C155.726 65.6867 155.972 64.6867 156.466 63.86C156.959 63.02 157.612 62.38 158.426 61.94C159.239 61.4867 160.126 61.26 161.086 61.26C161.966 61.26 162.766 61.48 163.486 61.92C164.206 62.3467 164.779 62.94 165.206 63.7C165.632 64.46 165.846 65.3467 165.846 66.36L165.826 67.24H157.786C157.906 68.1867 158.292 68.94 158.946 69.5C159.612 70.0467 160.452 70.32 161.466 70.32C162.199 70.32 162.792 70.1867 163.246 69.92C163.699 69.64 164.072 69.3733 164.366 69.12L165.386 70.62ZM161.086 63.16C160.299 63.16 159.612 63.3467 159.026 63.72C158.439 64.08 158.052 64.7067 157.866 65.6H163.746V65.46C163.706 65.0067 163.552 64.6067 163.286 64.26C163.032 63.9133 162.712 63.6467 162.326 63.46C161.939 63.26 161.526 63.16 161.086 63.16ZM171.945 72H169.885V63.5H167.705V61.5H169.885V58.82H171.945V61.5H174.385V63.5H171.945V72Z" fill="white"/>
<rect width="88" height="88" fill="#0A6054"/>
<path d="M24.8862 16L44.0838 47.2695L63.6168 16H72V72H62.9461V50.6228C62.9461 47.1018 63.002 43.7764 63.1138 40.6467C63.2814 37.4611 63.5329 34.3034 63.8683 31.1737L46.5988 57.8323H41.0659L24.2156 31.2575C24.5509 34.3872 24.7745 37.517 24.8862 40.6467C24.998 43.7764 25.0539 47.1018 25.0539 50.6228V72H16V16H24.8862Z" fill="white"/>
</svg>
